<svg id="visual" viewBox="0 0 900 600" width="900" height="600" xmlns="http://www.w3.org/2000/svg" xmlns:xlink="http://www.w3.org/1999/xlink" version="1.1"><rect x="0" y="0" width="900" height="600" fill="#FFFFFF"></rect><path d="M0 246L37.5 257.5C75 269 150 292 225 291.2C300 290.3 375 265.7 450 249.3C525 233 600 225 675 224C750 223 825 229 862.5 232L900 235L900 0L862.5 0C825 0 750 0 675 0C600 0 525 0 450 0C375 0 300 0 225 0C150 0 75 0 37.5 0L0 0Z" fill="#5ab7e5" stroke-linecap="round" stroke-linejoin="miter"></path></svg>